<svg version="1.1"  xmlns="http://www.w3.org/2000/svg" xmlns:xlink="http://www.w3.org/1999/xlink" x="0px" y="0px"
	 viewBox="0 0 1601 20" style="enable-background:new 0 0 1601 20;" xml:space="preserve"  preserveAspectRatio="xMidYMin meet">
<g>
</g>
<g>
</g>
<path d="M0,0v9.5c4.5,0,8.5,1.8,11.5,4.7c1.6-0.7,3.3-1.1,5.1-1.1c3.7,0,7,1.6,9.3,4.1c3.5-3.8,8.1-6.7,13.4-8.2
	c10.5-2.9,21.3,0.4,28.4,7.7c0.9-0.6,1.9-1.1,3-1.4c2-0.6,4.1-0.5,5.9,0.2c0.7-0.5,1.5-0.9,2.3-1.1c2.4-0.7,4.8-0.1,6.6,1.2
	c2.7-2.1,6.2-3.4,9.9-3.4c2.8,0,5.5,0.7,7.8,2c1.2-1.2,2.8-2.1,4.5-2.6c4.3-1.2,8.6,0.4,11.2,3.7c2.3-1.3,5-2.1,7.9-2.1
	c4.7,0,9,2,11.9,5.2c2.9-2.7,6.8-4.3,11.1-4.3c3.5,0,6.7,1.1,9.3,2.9c3.9-3.2,9-5.2,14.4-5.2c5.8,0,11,2.1,15,5.6
	c0.6-0.1,1.2-0.2,1.9-0.2c2.4,0,4.5,1,6.1,2.5c1.5-1.3,3.3-2.3,5.3-2.8c4.4-1.2,9-0.1,12.3,2.6c0.9-0.7,2-1.3,3.1-1.6
	c0.9-0.3,1.8-0.4,2.7-0.3c1-1.6,2.5-2.8,4.4-3.3c3-0.8,6.1,0.2,7.9,2.5c2.9-2.5,6.6-4,10.7-4c3.1,0,6.1,0.9,8.6,2.4
	c0.5-0.3,1-0.5,1.6-0.7c4.2-3.1,9.3-4.9,14.9-4.9c6,0,11.6,2.1,15.9,5.7c1.9-1.2,4.1-2,6.5-2c2.6,0,4.9,0.8,6.8,2.2
	c3.3-3.5,8.5-5.2,13.5-3.8c2.9,0.8,5.4,2.6,7.1,4.8c1.7-0.4,3.5-0.4,5.1,0c4.5-5.2,11.2-8.6,18.6-8.6c3.3,0,6.5,0.7,9.4,1.9
	c2.1,0.5,4,1.4,5.6,2.6c1-0.7,2-1.2,3.2-1.5c3.1-0.9,6.3-0.2,8.8,1.4c2.6-1.8,5.8-2.9,9.3-2.9c5.6,0,10.5,2.8,13.5,7.1
	c3-3.7,7.6-6.1,12.7-6.1c4.6,0,8.8,1.9,11.7,5c2.3-2.5,5.6-4.1,9.3-4.1c0.5,0,1,0,1.5,0.1c7.5-6.2,17.9-8.8,28-6
	c4.1,1.1,7.7,3,10.9,5.5c0.1,0,0.3-0.1,0.4-0.1c5.2-1.5,10.5-0.1,14.3,3.2c1.2,0,2.4,0.4,3.5,1c0.3,0,0.6,0.1,0.9,0.1
	c3-3.2,7.3-5.3,12-5.3c2.7,0,5.2,0.6,7.4,1.8c2.4-1.5,5.3-2.3,8.3-2.3c4.5,0,8.5,1.8,11.5,4.7c1.6-0.7,3.3-1.1,5.1-1.1
	c2.4,0,4.7,0.7,6.6,1.9c2.3-2.2,5.4-3.6,8.9-3.6c4.7,0,8.9,2.6,11,6.5c0.4-0.1,0.8-0.3,1.2-0.4c3-0.8,6.1-0.6,8.8,0.5
	c1.5-1.8,3.6-3.2,6-3.9c4.6-1.3,9.2,0.2,12.2,3.5l0,0c3.4-1,6.9,0,9.3,2.3c2.8-2.2,6.3-3.6,10.2-3.6c3.2,0,6.2,0.9,8.7,2.5
	c1.1-1,2.5-1.7,4-2.1c2.6-0.7,5.2-0.4,7.4,0.7c3-3.1,7.1-5,11.8-5c3.2,0,6.1,0.9,8.6,2.5c2.3-1.2,4.9-1.9,7.7-1.9
	c3.3,0,6.4,1,8.9,2.7c4.4-3.5,10-5.6,16-5.6c5.1,0,9.9,1.5,13.9,4.1c1.3-1,2.9-1.8,4.6-2.3c4.5-1.3,9.2-0.1,12.5,2.8
	c3.3-0.7,6.7,0.3,9.1,2.4c0.8-0.6,1.7-1.1,2.8-1.4c3.2-0.9,6.4,0.4,8.3,2.9c1,0.1,2,0.3,2.9,0.6c2.5-5.6,8.2-9.6,14.8-9.6
	c3.9,0,7.5,1.4,10.3,3.7c2.8,0,5.4,1,7.5,2.6c2-1.4,4.4-2.3,7-2.3s4.9,0.8,6.8,2.2c3.3-3.5,8.5-5.2,13.5-3.8c0.3,0.1,0.7,0.2,1,0.3
	c2.6-1.7,5.6-2.7,8.9-2.7l0,0l0,0h0.1c4.5,0,8.5,1.8,11.5,4.7c1.6-0.7,3.3-1.1,5.1-1.1c3.7,0,7,1.6,9.3,4.1
	c3.5-3.8,8.1-6.7,13.4-8.2c10.5-2.9,21.3,0.4,28.4,7.7c0.9-0.6,1.9-1.1,3-1.4c2-0.6,4.1-0.5,5.9,0.2c0.7-0.5,1.5-0.9,2.3-1.1
	c2.4-0.7,4.8-0.1,6.6,1.2c2.7-2.1,6.2-3.4,9.9-3.4c2.8,0,5.5,0.7,7.8,2c1.2-1.2,2.8-2.1,4.5-2.6c4.3-1.2,8.6,0.4,11.2,3.7
	c2.3-1.3,5-2.1,7.9-2.1c4.7,0,9,2,11.9,5.2c2.9-2.7,6.8-4.3,11.1-4.3c3.5,0,6.7,1.1,9.3,2.9c3.9-3.2,9-5.2,14.4-5.2
	c5.8,0,11,2.1,15,5.6c0.6-0.1,1.2-0.2,1.9-0.2c2.4,0,4.5,1,6.1,2.5c1.5-1.3,3.3-2.3,5.3-2.8c4.4-1.2,9-0.1,12.3,2.6
	c0.9-0.7,2-1.3,3.1-1.6c0.9-0.3,1.8-0.4,2.7-0.3c1-1.6,2.5-2.8,4.4-3.3c3-0.8,6.1,0.2,7.9,2.5c2.9-2.5,6.6-4,10.7-4
	c3.1,0,6.1,0.9,8.6,2.4c0.5-0.3,1-0.5,1.6-0.7c4.2-3.1,9.3-4.9,14.9-4.9c6,0,11.6,2.1,15.9,5.7c1.9-1.2,4.1-2,6.5-2
	c2.6,0,4.9,0.8,6.8,2.2c3.3-3.5,8.5-5.2,13.5-3.8c2.9,0.8,5.4,2.6,7.1,4.8c1.7-0.4,3.5-0.4,5.1,0c4.5-5.2,11.2-8.6,18.6-8.6
	c3.3,0,6.5,0.7,9.4,1.9c2.1,0.5,4,1.4,5.6,2.6c1-0.7,2-1.2,3.2-1.5c3.1-0.9,6.3-0.2,8.8,1.4c2.6-1.8,5.8-2.9,9.3-2.9
	c5.6,0,10.5,2.8,13.5,7.1c3-3.7,7.6-6.1,12.7-6.1c4.6,0,8.8,1.9,11.7,5c2.3-2.5,5.6-4.1,9.3-4.1c0.5,0,1,0,1.5,0.1
	c7.5-6.2,17.9-8.8,28-6c4.1,1.1,7.7,3,10.9,5.5c0.1,0,0.3-0.1,0.4-0.1c5.2-1.5,10.5-0.1,14.3,3.2c1.2,0,2.4,0.4,3.5,1
	c0.3,0,0.6,0.1,0.9,0.1c3-3.2,7.3-5.3,12-5.3c2.7,0,5.2,0.6,7.4,1.8c2.4-1.5,5.3-2.3,8.3-2.3c4.5,0,8.5,1.8,11.5,4.7
	c1.6-0.7,3.3-1.1,5.1-1.1c2.4,0,4.7,0.7,6.6,1.9c2.3-2.2,5.4-3.6,8.9-3.6c4.7,0,8.9,2.6,11,6.5c0.4-0.1,0.8-0.3,1.2-0.4
	c3-0.8,6.1-0.6,8.8,0.5c1.5-1.8,3.6-3.2,6-3.9c4.6-1.3,9.2,0.2,12.2,3.5l0,0c3.4-1,6.9,0,9.3,2.3c2.8-2.2,6.3-3.6,10.2-3.6
	c3.2,0,6.2,0.9,8.7,2.5c1.1-1,2.5-1.7,4-2.1c2.6-0.7,5.2-0.4,7.4,0.7c3-3.1,7.1-5,11.8-5c3.2,0,6.1,0.9,8.6,2.5
	c2.3-1.2,4.9-1.9,7.7-1.9c3.3,0,6.4,1,8.9,2.7c4.4-3.5,10-5.6,16-5.6c5.1,0,9.9,1.5,13.9,4.1c1.3-1,2.9-1.8,4.6-2.3
	c4.5-1.3,9.2-0.1,12.5,2.8c3.3-0.7,6.7,0.3,9.1,2.4c0.8-0.6,1.7-1.1,2.8-1.4c3.2-0.9,6.4,0.4,8.3,2.9c1,0.1,2,0.3,2.9,0.6
	c2.5-5.6,8.2-9.6,14.8-9.6c3.9,0,7.5,1.4,10.3,3.7c2.8,0,5.4,1,7.5,2.6c2-1.4,4.4-2.3,7-2.3s4.9,0.8,6.8,2.2
	c3.3-3.5,8.5-5.2,13.5-3.8c0.3,0.1,0.7,0.2,1,0.3c2.6-1.7,5.6-2.7,8.9-2.7l0,0V0H0z"/>
</svg>
