<svg version="1.1" xmlns="http://www.w3.org/2000/svg" xmlns:xlink="http://www.w3.org/1999/xlink" x="0px" y="0px"
	 viewBox="0 0 1572.4 32.6" style="enable-background:new 0 0 1572.4 32.6;" xml:space="preserve"  preserveAspectRatio="xMidYMin meet">
<g>
</g>
<g text-rendering="geometricPrecision" shape-rendering="geometricPrecision" image-rendering="optimizeQuality">
	<g>
		<path d="M1158.8,10h-2c0.2,1.4,0.5,1.4,1,2.6h3C1160.5,10.4,1161,11.6,1158.8,10z"/>
		<path d="M1161.9,13.6h5v-1C1163.1,12.1,1163.1,11.3,1161.9,13.6z"/>
		<path d="M244.1,18.2v3.1l1.9,0.6l0,0c0-0.9,0.2-1.5-0.3-2.4C244.9,18.2,244.6,18.6,244.1,18.2z"/>
		<path d="M247.2,19.4h2c1.9-1.5,1.8-0.7,1-2.6l-1.9,1.1C246.8,19,247.9,17.7,247.2,19.4z"/>
		<path d="M1029.4,14.8l-1.1,2h4c-0.8-1.1-0.3-0.6-1.5-1.4C1028.9,14.2,1030.7,15.5,1029.4,14.8z"/>
		<path d="M1029.4,14.8C1029.4,14.7,1029.4,14.7,1029.4,14.8L1029.4,14.8L1029.4,14.8z"/>
		<path d="M1052.4,18.8c3.6-0.5,2.7-0.1,3-2.1C1051.7,17.3,1052.6,16.8,1052.4,18.8z"/>
		<path d="M338.2,19.9c3.6-0.5,2.7-0.1,3-2.1C337.6,18.3,338.5,17.8,338.2,19.9z"/>
		<path d="M1149.7,13c-1.7,1.4-0.2,0.2,0.3,0.7l0,0c0.6,0.2-0.7,0.9,1.9,0c1.7-0.6,0.3,0,0.9-1l-0.9-0.6
			C1149.7,12.5,1150.7,11.9,1149.7,13z"/>
		<path d="M1159.9,14.8c0.2,0.7,1.2,1,3,1s1.6-0.8,2-1.6C1162.2,14.9,1163.8,14.7,1159.9,14.8z"/>
		<path d="M315.2,15.7L315.2,15.7L315.2,15.7L315.2,15.7z"/>
		<path d="M315.2,15.8c-0.8,1.8-1.5,1.9,3,2.1c-0.8-1.1-0.3-0.6-1.5-1.4C314.8,15.2,316.6,16.5,315.2,15.8z"/>
		<path d="M174.1,22.9v1.6h3C176.3,23,177.1,23.4,174.1,22.9z"/>
		<polygon points="251.1,19.3 249.1,19.3 247.1,21 251.1,20.4 		"/>
		<path d="M346.2,18.3c4.7-0.2,1.8,0.6,4-1C347.6,16.7,348.1,16.8,346.2,18.3z"/>
		<path d="M1138.4,12.2C1138.5,12.2,1138.4,12.2,1138.4,12.2L1138.4,12.2z"/>
		<path d="M1136.9,13.6c6.6-0.9,2-1,2-1c-0.6-0.2-0.6-0.3-0.5-0.4c-0.1,0-0.3,0.1-0.7,0.3C1135.5,13.4,1137.4,12.6,1136.9,13.6z"/>
		<path d="M182.1,22h-2c0.1,1.5,0.3,1,2,1.6V22z"/>
		<path d="M760.6,14.2h2v-1.6C760.2,13.4,761.3,12.7,760.6,14.2z"/>
		<path d="M246.1,22v1.6h2C247.4,22,248.2,22.8,246.1,22z"/>
		<path d="M260.1,18.3h3v-1C260.3,17.7,261.7,17.2,260.1,18.3z"/>
		<rect x="382.3" y="15.3" width="2" height="1"/>
		<rect x="244.1" y="16.8" width="2" height="1"/>
		<rect x="400.3" y="30.3" width="2" height="1"/>
		<rect x="1095.9" y="15.8" width="2" height="1"/>
		<rect x="15.9" y="28.3" width="2" height="1"/>
		<rect x="519.4" y="23.5" width="2" height="1"/>
		<path d="M1039.3,18.3c-1.7,0.9,1.2,0.3,1.2,0.3C1042.9,19,1040.3,17.8,1039.3,18.3z"/>
		<path d="M325.2,19.4c-1.7,0.9,1.2,0.3,1.2,0.3C328.8,20.1,326.2,18.8,325.2,19.4z"/>
		<path d="M335.2,19.4c-1.7,0.9,1.2,0.3,1.2,0.3C338.8,20.1,336.2,18.8,335.2,19.4z"/>
		<path d="M1016.6,25c-1.7,0.9,1.2,0.3,1.2,0.3C1020.3,25.8,1017.7,24.6,1016.6,25z"/>
		<path d="M488.3,30.3c-1.7,0.9,1.2,0.3,1.2,0.3C491.9,31,489.3,29.8,488.3,30.3z"/>
		<path d="M729.8,16.8l1.8-1.1C728,15.9,730.4,15.2,729.8,16.8z"/>
		<path d="M991.7,26.1c0,1.5,0.7,0,0.7,0C993.4,25.9,991.8,24.9,991.7,26.1z"/>
		<path d="M324.1,17.3c0,1.5,0.7,0,0.7,0C325.8,17.1,324.2,16.1,324.1,17.3z"/>
		<path d="M1042,15.8c0.9-0.2-0.7-1.2-0.7,0C1041.3,17.2,1041.9,15.8,1042,15.8z"/>
		<path d="M327.9,16.8c0.9-0.2-0.7-1.2-0.7,0C327.2,18.2,327.8,16.8,327.9,16.8z"/>
		<path d="M1038.2,16.2c0,1.5,0.7,0,0.7,0C1039.9,16.1,1038.2,15,1038.2,16.2z"/>
		<path d="M317,19.8l-1.8,1.1C317.5,20.5,316.5,21.2,317,19.8z"/>
		<path d="M1071.7,17.7l-1.8,1.1C1072.2,18.4,1071.2,19.2,1071.7,17.7z"/>
		<path d="M358,17.2l-1.8,1.1C358.5,17.9,357.5,18.7,358,17.2z"/>
		<path d="M13.7,14.1l-1.8,1.1C14.3,14.8,13.2,15.5,13.7,14.1z"/>
		<path d="M1023,15.8l2.2,0.9C1024.4,15.5,1025.9,16.1,1023,15.8z"/>
		<path d="M309,16.9l2.2,0.9C310.3,16.6,311.8,17.1,309,16.9z"/>
		<path d="M804.4,12.8l2.2,0.9C805.7,12.4,807.2,12.9,804.4,12.8z"/>
		<path d="M1289.8,27.9l2.2,0.9C1291.2,27.5,1292.7,28,1289.8,27.9z"/>
		<path d="M546.2,27.9l2.2,0.9C547.5,27.5,549,28,546.2,27.9z"/>
		<path d="M1031.1,18.8l-1.8,1.1C1031.6,19.4,1030.6,20.2,1031.1,18.8z"/>
		<path d="M1049.3,18.3c-0.1,0.1,0.1,0.1,0.2,0.2C1049.4,18.4,1049.3,18.3,1049.3,18.3z"/>
		<path d="M1049.5,18.5L1049.5,18.5L1049.5,18.5z"/>
		<path d="M848.9,11.2L848.9,11.2L848.9,11.2z"/>
		<path d="M848.7,11c-0.1,0.1,0.1,0.1,0.2,0.2C848.8,11.1,848.7,11,848.7,11z"/>
		<path d="M164.4,22.2l-0.3-0.2C164,22,164.4,22.1,164.4,22.2z"/>
		<path d="M133.3,22.2L133,22C132.9,22,133.3,22.1,133.3,22.2z"/>
		<path d="M741.9,17.5l-0.3-0.2C741.5,17.3,741.8,17.4,741.9,17.5z"/>
		<path d="M189.4,24.3l-0.3-0.2C189,24.1,189.4,24.2,189.4,24.3z"/>
		<path d="M223.4,24.3l-0.3-0.2C223,24.1,223.4,24.2,223.4,24.3z"/>
		<path d="M242.4,22.7l-0.3-0.2C242,22.6,242.4,22.6,242.4,22.7z"/>
		<path d="M872.7,32.3l0.2,0.1C872.8,32.4,872.7,32.3,872.7,32.3z"/>
		<path d="M872.9,32.4L872.9,32.4C872.9,32.5,872.9,32.5,872.9,32.4z"/>
		<path d="M873,32.5L873,32.5C873.1,32.6,872.9,32.5,873,32.5z"/>
		<path d="M1572.4,12.6V0H0v12.4h4.9c3.7-0.1,0.7-0.4,5.2-0.5c3.7-0.1,3.4,0.5,5.6,0.3c6.4-0.5,6.9-1.7,14.3,0.3
			c2.4-0.8,1.1-0.6,4-1c0.8,1.2,2.9,1.8,5,2.1c1.2-1.4,0.5-1.5-1-2.6c4.2,0.5,2.7,0.6,6-0.5c-0.2,1.4-0.5,1.4-1,2.6h3
			c0.1-2.1-0.3-1.2,1-2.6c5.6,2.2-0.5,3.8,6,4.7c-0.2-1.4-0.5-1.4-1-2.6l7.8,1.8c4.3,1.4,4.4,0.5,8.9,0.6c5.3,0.1,0.7,0.5,6.3,0.8
			c-2.4,2-3.8,1.4,1,1.6c0.4-2.4,0.8-1.4,3-3.1l7,2.1c4-0.2,8.6-1.9,11.5-1.7c3.7,0.3,3.1,0.2,2.3,2.1c5.9,0.1,16,0.6,21.2-0.9
			c4.9,1.4,20,1,26.6,1.8c8.4,1.1,6.7-0.1,13.5,0.2c2.1,0.1,4-1.4,5.8-1.4l15.8,1.8c4.6,0.4,4.5-0.4,9.6,0.1
			c2.7,0.3,5.7,0.7,7.3,0.5c3.8-0.4-1.4-1.8,2.8-1.8l10.5,1.4c4.1,0,10.4,0.6,12.5-1.4l3.6,1.1c1-1.2-0.6-0.6,2-1
			c0.2-0.1,3.3-0.1,3.9-0.1c7.1-0.3,18.6-3.1,20.1,0.1h4c1.6-2-0.1-0.7,4.2-0.8c2.4,0,1.9-0.3,4.7-0.8c4.2-0.6,1.7,0.2,5,0l13.3-2.4
			c4.4-0.4,7.8-4.3,15.8-1.2c9.9,3.8,4.4,0.3,14.3,2c4.5,0.8,1.9-0.4,6.8,0.6l3.6,0.9c6,0.5,7.9,1.6,12.5-0.5
			c6.5,1.6,10.6-0.4,14-0.4c1.7,0,2.8,0.6,5.4,0.5s4.7-0.2,7.5-0.2v-1c3.9,1.4,7.8,0.5,13,0.5h1c4.6,0,13.6-0.5,15.8-0.4
			c3.9,0.3,8.9,0,12.2-1.1c0.2,0.1,0.5,0.1,0.6,0.2l1.3,0.4c0.2,0.1,0.5,0.1,0.7,0.2l2.7,1.5l2.8-1.7c4.6,0.6,4.6,0.4,8.2-0.1
			c2.5-0.3,0.9,0.3,1.8-0.9c4.1,1.5,0.4,0.6,4.3,0.8c1.9,0.1,0.9,0,1.9,0.2c2.9,0.5,6.4-0.1,11.7,0.1c4.4,0.2-0.1-0.2,5.5-0.6
			l11.5,0.9c1.7,0,1.3-0.2,4.6-0.1c2.4,0.1,6.7-1,9.5-1.3c1.9,1.5,7.8,2.4,12.2,2.6s5.5-1.9,10.8-2l26.5-0.4
			c3.6,0.1,1.8,1.3,4.4,1.4c3,0.1-1.2-0.1,1.9,0c3.5,0,3.9-0.6,7.2-0.9c1.2-0.1,5.6-1.1,7-1.1c12.2,0.1,22.5,0.6,34.1,1.2l11-0.1
			c4.8-0.2,3.8-0.4,8.2,1.2c6.3-2.7,6.6-1.3,13.9-2.2c1,1.1,1.7,0.3,1.9,1.9c2.6-0.4,2.7-0.8,5.1-1.4c-1.2,2.7,4.5,2.9,8.7,2.7
			c2.9-0.1,2.7-0.6,7.3-0.6c0.9,1.2-0.6,0.6,2,1c1.6-1.3,1.2-0.6,2-2.1c3.2,0.5,3.9,2.2,7,2.6l10-0.5l2,1.5l10.8-0.2
			c0.2,0,0.5,0,0.6,0l2.4-0.4c2.8-0.2,5.3,0.2,6.8-1.9l3,1c0.3,0,7.8-0.8,15,1c3.3-1.1,1.8-1,6-0.5c-0.1-2.7-0.8-1.4-1.7-3.6
			c7.1,0,6.5-0.5,10.7,1c4.7-0.2,1.6-0.4,5.2-0.7c3.6-0.2-1.8,0.6,2.7,0.1c5.1-0.6,1.2-2.2,10.6-0.6c9.3,1.5-0.3,1.5,6.3,2.9
			c8.9,1.9,0.8-0.4,9.3,2.5c2.1-0.5,0.9-0.4,4-0.5c1.2-2.7,0.6-3,6.1-4.6c3.9-1.2,7.6-0.8,11.3-0.5c1.5,0.1,5.2-0.2,8.5-0.2l-2,1.6
			h3l0.1,0.1v0.1l0,0h-0.2l1.7,0.5c0.8-1.6,0.4-0.9,2-2.1c2,0.6,6.1,1.3,8,1.4c2,0.1,0-0.2,3.4,0c1.8,0.1,2.5,0.2,4.6,0.2
			c-0.2-1.5-0.1-1.2-1-2.1h6c0.8-1.2,1.7-0.9,2-2.6l21,1c1.5-2-0.2-0.5,3-0.9l2.3-0.5c0.1,0.1,0.5-0.1,0.7-0.2
			c2.1,1.5,0.6,0.7,4,1.6c1.2-0.4,3.7-2.2,10,0c1.4-1,0.4-1,4.2-0.9c0.2,0,0.5,0,0.6,0c3.5,0.1,5.5,0,7.9,0.5
			c12.2,2.8,8.8,0.3,16.3,0.9c5.6,0.5-3,0.4,8,1.1c1.8,0.1,2.2,0.2,4,0.6l12.9,1.8c0.1,0,2.5,0.1,3.2,0.2c0.8-1.5-0.2-0.8,2-1.6
			l1.2,0.4c0.1,0,0.4,0.1,0.6,0.2c5.8,1.8,3.5,0.6,11.2,1.5c0.8-1.5-0.2-0.8,2-1.6c3.9,1.4,4.5,0.8,9.8,0.9
			c11.2,0.1,11.7,0,16.2-1.9c3.1,0.5,1.1,0.3,2.2,0.5c1.8,0.4,0.2,0.1,1.7,0.3c2.1,0.2-0.3-0.5,3.1,0.3c7.9,1.9,2.5,0.3,6.6,0.8
			c3,0.3-0.6,0.8,4.3,0.7c4.1-0.1,2.9-1.9,11.1,1c3.8-0.9,6.9-0.4,13.6-0.3c8.3,0.1,7.2-0.4,8.1-0.4c1.8,0,0.5-0.6,1.3,0.7h3
			c1.3-1.8,2.2,0.1,11-2.1c3.1-0.8,3.2-1.5,7.5-1.5c4.7,0,3.6-0.8,7.8-0.5c3.8,0.3,4.2,1.1,6,1.6c3.1,0.7-0.7-0.8,5.6,0.8
			c5.6,1.3,7.6,0.5,10.2,1c0.3,0,1,0.2,1.2,0.3l1.4,0.4c1.6-1.3,1.2-0.6,2-2.1c5.3,0.8,0.7,1.4,7.4,0.8c1-0.1,3.3-0.3,4.2-0.5
			c3.4-0.7,1,1.1,1.9,0.7c2.4,0.8,3.7,1.3,8.6,0.8c1.6-0.2,3.6-0.6,5.5-0.8c4.7-0.6,1.3,0.7,4-1.2l2.9,1.1c5.8-2,8.5-1.8,9-4.7
			c1.5,0,2.6,0.1,3.6,0.2l10.3,0.3c3.4-0.3,2.9-1.2,3.7-1.7c0.5-0.3,1.1-0.6,1.4-0.8c2.2,0.7,3,0.9,5,1.6c0.3-0.4,0.3-0.6,0.2-0.7
			c0.1,0,0.3,0,0.7-0.1c1.9-0.4,5,0.8,6.2,1.2c5.6-1.4,9.5,0.2,16-1.6c5.2,1.8,1.8,0.8,8,0.5c1,1.3-0.4,0.7,2.4,0.9l2-0.1
			c0.2,0,1.2,0.1,1.5,0.2c0.2-0.1,2-1.7,2,0h13c-3.1,0-4.1,0.5-6,1c2.6,2.1,1.9,1.6,8,1.6c-1.3-1.4-0.9-0.6-1-2.6l5-1
			c2.5,0.6,4.6,0.9,7.1,1.6l2.9-1.1c3.2,0.4,6.3,1.3,8.2,1.5c6.1,0.6,13.7-0.1,19.9,0.1c4.5,0.2,5.7-0.6,6.9-0.5l4.6,1.4
			c4.7,0.6,11,1.6,16.4-0.3c3,1.3,6,0.9,10.2,1.1l3.8-0.6c5.5,0,8.8,0.5,13-1c1,1.3-0.4,0.7,2.4,0.9c4,0.3,7.7-0.3,10.6-0.4
			c5.3-0.1,5,0.6,11-0.5c2.6-0.5,1,0.3,2-1c2.5,0.9,4.4,1.2,7,2.1c2.8-1,1.3-0.8,5.5-0.9c0.2,0,0.5,0,0.7,0l1.7-0.3
			c4-0.5,7,0,8.4-0.3c1.7-0.3-0.2,0,1.8-0.7c2.5,1.8,2.2,1.3,6,1.1l34.3,0.2c1.9,0.1,4.5-0.3,7.7-0.3c6,0,8.2,1.2,13.1,0.1
			c2.4-0.6,1,0.1,1.9-1.1c1,0.1,2.4-0.4,3.6-0.3l0,0c0.2,0,4.3,2.5,4.5,2.5l18.5,2.5c1.8,0,3.5,1.3,5.6,1.2
			c6.8-0.3,6.2-0.9,14.6-1.9c6.6-0.8,20.4-0.2,25.3-1.6c5.3,1.4,11.9-1.1,17.8-1.2c3.8-0.1,4.6,0.9,8.3,0.6c3-0.1,5.3,0,9.3,0.2
			l6.7-1.2c2.2,1.7,2.2,2.8,2.6,5.2c4.8-0.2,3.4,0.3,1-1.6c5.6-0.2,1-0.7,6.3-0.8c4.5,0,4.5,0.9,8.9-0.6l7.8-2.2
			c-0.5,1.2-0.8,1.2-1,2.6c6.6-0.9,0.4-2.6,6-4.7c1.3,1.4,0.9,0.6,1,2.6h3c-0.5-1.2-0.8-1.2-1-2.6c3.3,1.1,1.8,1,6,0.5
			c-1.5,1.1-2.2,1.2-1,2.6c2.2-0.3,4.2-0.9,5-2.1c3,0.4,1.1,2.4,3.5,3.2c7.4-2.1,7.8-0.9,14.3-0.3c2.1,0.2,1.8-0.4,5.6-0.3
			C1571.7,12.4,1571.6,12.5,1572.4,12.6L1572.4,12.6z"/>
	</g>
</g>
<g>
</g>
</svg>
